<?xml version="1.0" standalone="no"?>
<!DOCTYPE svg PUBLIC "-//W3C//DTD SVG 20010904//EN"
 "http://www.w3.org/TR/2001/REC-SVG-20010904/DTD/svg10.dtd">
<svg version="1.0" xmlns="http://www.w3.org/2000/svg"
 width="524.000000pt" height="101.000000pt" viewBox="0 0 524.000000 101.000000"
 preserveAspectRatio="xMidYMid meet">

<g transform="translate(0.000000,101.000000) scale(0.100000,-0.100000)"
fill="#000000" stroke="none">
<path d="M20 500 l0 -480 483 2 482 3 0 475 0 475 -482 3 -483 2 0 -480z m930
0 l0 -450 -450 0 -450 0 0 450 0 450 450 0 450 0 0 -450z"/>
<path d="M121 894 c-26 -33 -27 -58 -1 -84 26 -26 64 -25 90 2 27 30 25 62 -6
87 -36 28 -58 26 -83 -5z m69 -39 c0 -31 -26 -43 -46 -23 -20 20 -7 48 22 48
19 0 24 -5 24 -25z"/>
<path d="M267 914 c-4 -4 -7 -34 -7 -66 l0 -58 210 0 211 0 -3 63 -3 62 -201
3 c-110 1 -203 -1 -207 -4z m93 -64 c0 -28 -3 -30 -35 -30 -32 0 -35 2 -35 30
0 28 3 30 35 30 32 0 35 -2 35 -30z m90 0 c0 -27 -3 -30 -30 -30 -27 0 -30 3
-30 30 0 27 3 30 30 30 27 0 30 -3 30 -30z m100 0 c0 -27 -3 -30 -30 -30 -27
0 -30 3 -30 30 0 27 3 30 30 30 27 0 30 -3 30 -30z m100 0 c0 -28 -3 -30 -35
-30 -32 0 -35 2 -35 30 0 28 3 30 35 30 32 0 35 -2 35 -30z"/>
<path d="M717 914 c-4 -4 -7 -34 -7 -66 l0 -58 95 0 96 0 -3 63 -3 62 -85 3
c-47 1 -89 0 -93 -4z m153 -64 l0 -30 -65 0 -65 0 0 30 0 30 65 0 65 0 0 -30z"/>
<path d="M91 746 c-8 -9 -11 -105 -9 -337 l3 -324 415 0 415 0 0 335 0 335
-406 3 c-336 2 -408 0 -418 -12z m799 -41 c0 -13 -49 -15 -385 -15 -336 0
-385 2 -385 15 0 13 49 15 385 15 336 0 385 -2 385 -15z m-490 -60 c0 -13 -22
-15 -140 -15 -118 0 -140 2 -140 15 0 13 22 15 140 15 118 0 140 -2 140 -15z
m170 -35 l0 -50 -65 0 -65 0 0 50 0 50 65 0 65 0 0 -50z m320 35 c0 -13 -23
-15 -145 -15 -122 0 -145 2 -145 15 0 13 23 15 145 15 122 0 145 -2 145 -15z
m-486 -85 c4 -21 11 -30 26 -30 16 0 20 -7 20 -35 0 -21 6 -38 14 -41 8 -3 17
-15 20 -27 3 -12 18 -30 33 -39 l28 -17 -77 -1 -78 0 0 -95 0 -95 -69 0 c-72
0 -81 -6 -81 -51 0 -17 -8 -19 -60 -19 l-60 0 0 240 0 240 139 0 139 0 6 -30z
m484 -207 l-3 -238 -62 -3 -62 -3 -3 33 -3 33 -67 3 c-52 2 -68 6 -68 17 0 11
11 15 38 15 21 0 48 7 60 16 19 13 22 24 22 80 l0 64 -45 0 c-43 0 -45 -1 -45
-30 0 -20 -5 -30 -15 -30 -9 0 -15 9 -15 25 0 19 -12 33 -50 57 -51 34 -61 52
-35 62 9 3 15 18 15 40 0 28 4 35 23 38 16 2 23 11 25 31 l3 27 145 0 144 0
-2 -237z m-368 152 c0 -16 -6 -25 -15 -25 -9 0 -15 9 -15 25 0 16 6 25 15 25
9 0 15 -9 15 -25z m60 -245 l0 -80 -80 0 -80 0 0 80 0 80 80 0 80 0 0 -80z
m130 42 c0 -47 -14 -62 -57 -62 -41 0 -46 27 -5 32 22 2 28 8 30 36 5 48 32
43 32 -6z m18 -174 c-4 -10 -60 -14 -226 -16 -193 -2 -222 0 -222 13 0 13 30
15 226 15 176 0 225 -3 222 -12z"/>
<path d="M4609 886 l-187 -92 184 -92 c101 -51 190 -92 198 -92 8 0 97 41 198
91 l183 91 -185 94 c-102 51 -189 93 -195 93 -5 0 -94 -42 -196 -93z"/>
<path d="M3853 913 l-33 -4 0 -350 0 -349 40 0 40 0 0 194 0 194 31 6 c48 9
105 7 133 -5 44 -20 56 -72 56 -239 l0 -150 41 0 41 0 -4 183 c-3 166 -5 185
-25 217 -33 53 -76 74 -153 75 -36 0 -77 -3 -92 -8 l-28 -7 0 125 c0 69 -3
124 -7 123 -5 0 -23 -3 -40 -5z"/>
<path d="M1310 844 c-64 -23 -71 -30 -58 -60 13 -28 15 -29 61 -9 78 32 164
12 187 -45 28 -68 -20 -129 -109 -138 -50 -4 -51 -5 -51 -37 0 -32 1 -32 57
-38 66 -7 101 -29 126 -80 17 -33 17 -42 5 -79 -7 -23 -25 -50 -41 -62 -37
-27 -139 -34 -201 -13 l-45 15 -6 -30 c-9 -37 0 -43 75 -59 145 -30 286 33
306 137 16 84 -11 148 -79 193 l-37 24 30 18 c88 54 78 196 -18 252 -45 27
-144 32 -202 11z"/>
<path d="M1823 853 l-43 -4 0 -319 0 -318 86 -7 c162 -14 287 24 358 107 46
53 66 120 66 218 0 247 -150 351 -467 323z m267 -93 c28 -16 55 -42 75 -74 28
-47 30 -55 30 -156 0 -101 -2 -109 -30 -156 -45 -73 -96 -97 -212 -102 l-93
-4 0 262 0 262 93 -4 c74 -3 101 -8 137 -28z"/>
<path d="M2340 815 l0 -35 100 0 100 0 0 -285 0 -285 45 0 45 0 0 285 0 285
100 0 100 0 0 35 0 35 -245 0 -245 0 0 -35z"/>
<path d="M4390 480 l0 -270 190 -95 c104 -52 192 -95 195 -95 3 0 5 120 5 268
l0 267 -195 98 -195 97 0 -270z"/>
<path d="M5023 654 l-193 -95 0 -269 0 -269 123 58 c67 32 155 75 195 95 l72
36 0 270 c0 149 -1 270 -2 269 -2 0 -90 -43 -195 -95z"/>
<path d="M2995 688 c-91 -32 -145 -119 -145 -233 0 -116 35 -186 113 -228 35
-18 57 -22 127 -21 47 0 97 5 111 11 22 10 25 16 21 48 -3 29 -8 35 -21 29 -9
-3 -47 -8 -86 -11 -105 -6 -158 29 -179 120 l-6 27 166 0 167 0 -6 69 c-6 77
-21 113 -64 152 -49 46 -130 61 -198 37z m146 -94 c11 -11 23 -34 28 -52 l10
-32 -120 0 c-101 0 -119 2 -119 16 0 26 20 54 53 75 40 25 119 21 148 -7z"/>
<path d="M3512 687 c-51 -19 -98 -62 -123 -114 -31 -62 -33 -189 -5 -243 50
-95 134 -138 250 -125 81 8 89 14 81 58 -6 33 -9 35 -32 26 -39 -14 -122 -11
-160 8 -99 47 -97 260 2 308 31 14 52 16 106 11 l67 -6 7 31 c8 37 7 38 -42
50 -51 12 -111 10 -151 -4z"/>
</g>
</svg>
