<?xml version="1.0" standalone="no"?>
<!DOCTYPE svg PUBLIC "-//W3C//DTD SVG 20010904//EN"
 "http://www.w3.org/TR/2001/REC-SVG-20010904/DTD/svg10.dtd">
<svg version="1.0" xmlns="http://www.w3.org/2000/svg"
 width="512.000000pt" height="512.000000pt" viewBox="0 0 512.000000 512.000000"
 preserveAspectRatio="xMidYMid meet">
<metadata>
Created by potrace 1.10, written by Peter Selinger 2001-2011
</metadata>
<g transform="translate(0.000000,512.000000) scale(0.100000,-0.100000)"
fill="#000000" stroke="none">
<path d="M96 4840 c-52 -16 -96 -73 -96 -125 0 -35 24 -79 56 -104 26 -20 37
-21 395 -21 202 0 370 -3 372 -8 5 -7 477 -2122 477 -2134 0 -3 -19 -17 -43
-31 -110 -64 -178 -181 -185 -315 -7 -127 26 -218 110 -302 84 -84 160 -110
325 -110 70 0 124 -4 128 -10 3 -6 0 -10 -7 -10 -32 0 -141 -63 -183 -105 -26
-25 -61 -76 -78 -113 -29 -61 -32 -76 -32 -162 0 -118 23 -181 95 -263 149
-166 412 -174 569 -16 118 117 149 305 75 451 -49 97 -153 184 -242 203 -18 4
-30 11 -26 16 7 12 1681 12 1688 0 4 -5 -8 -12 -26 -16 -53 -11 -122 -53 -171
-103 -150 -155 -149 -399 4 -551 158 -159 420 -151 569 16 71 81 94 144 95
263 0 86 -3 101 -32 162 -17 37 -52 88 -78 113 -42 42 -151 105 -183 105 -7 0
-10 5 -7 10 3 6 53 10 113 10 117 1 141 9 173 56 38 58 14 153 -48 185 -24 12
-223 15 -1266 19 l-1239 5 -34 37 c-27 30 -34 46 -34 78 0 53 23 96 63 120 31
19 60 20 1247 21 914 0 1223 3 1249 12 19 7 43 24 53 38 29 39 561 1906 554
1946 -6 42 -33 79 -73 98 -27 13 -216 15 -1650 15 l-1619 0 -48 218 c-26 119
-56 231 -67 248 -36 59 -35 59 -494 61 -231 1 -433 -2 -449 -7z"/>
</g>
</svg>
